<svg width="38" height="37" viewBox="0 0 38 37" fill="none" xmlns="http://www.w3.org/2000/svg">
<rect x="1" y="0.5" width="36" height="36" rx="18" stroke="#FF7F00"/>
<g clip-path="url(#clip0_3986_799)">
<path d="M24.5 9C25.8261 9 27.0979 9.52678 28.0355 10.4645C28.9732 11.4021 29.5 12.6739 29.5 14V24C29.5 25.3261 28.9732 26.5979 28.0355 27.5355C27.0979 28.4732 25.8261 29 24.5 29H14.5C13.1739 29 11.9021 28.4732 10.9645 27.5355C10.0268 26.5979 9.5 25.3261 9.5 24V14C9.5 12.6739 10.0268 11.4021 10.9645 10.4645C11.9021 9.52678 13.1739 9 14.5 9H24.5ZM15.5 17C15.2348 17 14.9804 17.1054 14.7929 17.2929C14.6054 17.4804 14.5 17.7348 14.5 18V23C14.5 23.2652 14.6054 23.5196 14.7929 23.7071C14.9804 23.8946 15.2348 24 15.5 24C15.7652 24 16.0196 23.8946 16.2071 23.7071C16.3946 23.5196 16.5 23.2652 16.5 23V18C16.5 17.7348 16.3946 17.4804 16.2071 17.2929C16.0196 17.1054 15.7652 17 15.5 17ZM21.5 17C21.0988 16.9998 20.7016 17.08 20.332 17.236L20.207 17.293C20.0671 17.1532 19.889 17.058 19.695 17.0194C19.5011 16.9808 19.3 17.0007 19.1173 17.0763C18.9346 17.152 18.7785 17.2801 18.6686 17.4445C18.5587 17.609 18.5 17.8022 18.5 18V23C18.5 23.2652 18.6054 23.5196 18.7929 23.7071C18.9804 23.8946 19.2348 24 19.5 24C19.7652 24 20.0196 23.8946 20.2071 23.7071C20.3946 23.5196 20.5 23.2652 20.5 23V20C20.5 19.7348 20.6054 19.4804 20.7929 19.2929C20.9804 19.1054 21.2348 19 21.5 19C21.7652 19 22.0196 19.1054 22.2071 19.2929C22.3946 19.4804 22.5 19.7348 22.5 20V23C22.5 23.2652 22.6054 23.5196 22.7929 23.7071C22.9804 23.8946 23.2348 24 23.5 24C23.7652 24 24.0196 23.8946 24.2071 23.7071C24.3946 23.5196 24.5 23.2652 24.5 23V20C24.5 19.2044 24.1839 18.4413 23.6213 17.8787C23.0587 17.3161 22.2956 17 21.5 17ZM15.5 14C15.2551 14 15.0187 14.09 14.8356 14.2527C14.6526 14.4155 14.5357 14.6397 14.507 14.883L14.5 15.01C14.5003 15.2649 14.5979 15.51 14.7728 15.6954C14.9478 15.8807 15.187 15.9922 15.4414 16.0072C15.6958 16.0221 15.9464 15.9393 16.1418 15.7757C16.3373 15.6121 16.4629 15.3801 16.493 15.127L16.5 15C16.5 14.7348 16.3946 14.4804 16.2071 14.2929C16.0196 14.1054 15.7652 14 15.5 14Z" fill="#FF7F00"/>
</g>
<defs>
<clipPath id="clip0_3986_799">
<rect width="24" height="24" fill="white" transform="translate(7.5 7)"/>
</clipPath>
</defs>
</svg>
